# xmcd CD database file
#
# Track frame offsets:
#	150
#	14195
#	28218
#	41248
#	53096
#	65866
#	82460
#	94827
#	103962
#	116800
#	126696
#	154604
#
# Disc length: 2685 seconds
#
# Revision: 0
# Processed by: cddbd v1.4PL0 Copyright (c) Steve Scherf et al.
# Submitted via: CDex 1.50beta10
#
DISCID=c00a7b0c
DTITLE=Varios - Baila Country En Linea II
DYEAR=1900
DGENRE=Country
TTITLE0=Country Roads (Take Me Home)
TTITLE1=Jukebox Junkie
TTITLE2=Hello Honky Tonk
TTITLE3=Jambalaya
TTITLE4=Only Worse
TTITLE5=Country Boy
TTITLE6=My Second Home
TTITLE7=Heartland
TTITLE8=Don't Rock The Jukebox
TTITLE9=Rubbin'-A-Dubbin'
TTITLE10=Mercury Blues
TTITLE11=Baila Country En Linea
EXTD=
EXTT0=
EXTT1=
EXTT2=
EXTT3=
EXTT4=
EXTT5=
EXTT6=
EXTT7=
EXTT8=
EXTT9=
EXTT10=
EXTT11=
PLAYORDER=
